<svg xmlns="http://www.w3.org/2000/svg" xmlns:svg="http://www.w3.org/2000/svg" id="Layer_1" width="174" height="34" version="1.1" viewBox="0 0 174 34"><metadata id="metadata21"/><defs id="defs19"><linearGradient id="plus_1_" x1="-548.283" x2="-546.978" y1="48.742" y2="47.437" gradientTransform="matrix(28.934,0,0,12.2,16088.352,-572.1)" gradientUnits="userSpaceOnUse"><stop id="stop12" offset="0" stop-color="#00A0EE"/><stop id="stop14" offset="1" stop-color="#386AFF"/></linearGradient></defs><style id="style3">.st0{fill:#00adee}</style><title id="title5">ico-p1mdplogo</title><path style="fill:#00adee" id="pandora" d="m 118.5,5.9 c -6.1,0 -11.1,4.9 -11.1,11.1 0,6.1 5,11.1 11.1,11.1 6.1,0 11.1,-5 11.1,-11.1 0,-6.1 -5,-11.1 -11.1,-11.1 z M 50,8.4 C 48.1,6.8 45.7,5.9 43,5.9 c -6.1,0 -11.1,5 -11.1,11.1 0,6.1 5,11.1 11.1,11.1 2.7,0 5.1,-0.9 7,-2.5 l 0,1.8 4.1,0 0,-20.8 -4.1,0 0,1.8 z m 112.6,0 c -1.9,-1.6 -4.3,-2.5 -7,-2.5 -6.1,0 -11.1,5 -11.1,11.1 0,6.1 4.9,11.1 11.1,11.1 2.7,0 5.1,-0.9 7,-2.5 l 0,1.8 4.1,0 0,-20.8 -4.1,0 0,1.8 z M 136.8,7.9 c -2.4,1.5 -4.4,4.2 -4.4,9 l 0,10.5 4.4,0 0,-10.5 c 0,-6.9 7.1,-6.5 7.1,-6.5 l 0,-4.4 c 0,0 -3.8,-0.1 -7.1,1.9 z M 75,8.2 C 73.2,6.8 70.9,6 68.4,6 c -2.5,0 -4.8,0.8 -6.6,2.2 -2.7,2 -4.4,5.2 -4.4,8.8 l 0,10.4 4.4,0 0,-10.4 c 0,-3.7 3,-6.6 6.6,-6.6 3.7,0 6.6,3 6.6,6.6 l 0,10.3 4.5,0 0,-10.3 c 0,-3.6 -1.8,-6.8 -4.5,-8.8 z m 25.5,-6.2 0,6.4 c -1.9,-1.6 -4.3,-2.5 -7,-2.5 -6.1,0 -11.1,5 -11.1,11.1 0,6.1 5,11.1 11.1,11.1 2.7,0 5.1,-0.9 7,-2.5 l 0,1.8 4,0 0,-27.4 -2,0 c -1.1,0 -2,0.9 -2,2 z M 18.3,5.9 c -2.7,0 -5.1,0.9 -7,2.5 l 0,-1.8 -4,0 0,27.4 2,0 c 1.1,0 2,-0.9 2,-2 l 0,-6.4 c 1.9,1.6 4.3,2.5 7,2.5 6.1,0 11.1,-5 11.1,-11.1 0,-6.1 -5,-11.1 -11.1,-11.1 z m 100.2,17.7 c -3.7,0 -6.6,-3 -6.6,-6.6 0,-3.7 3,-6.6 6.6,-6.6 3.7,0 6.6,3 6.6,6.6 0.1,3.7 -2.9,6.6 -6.6,6.6 z m -75.3,0.3 c -3.8,0 -6.9,-3.1 -6.9,-6.9 0,-3.8 3.1,-6.9 6.9,-6.9 3.8,0 6.9,3.1 6.9,6.9 0,3.8 -3.1,6.9 -6.9,6.9 z m 112.6,0 c -3.8,0 -6.9,-3.1 -6.9,-6.9 0,-3.8 3.1,-6.9 6.9,-6.9 3.8,0 6.9,3.1 6.9,6.9 0,3.8 -3.1,6.9 -6.9,6.9 z m -62.1,0 c -3.8,0 -6.9,-3.1 -6.9,-6.9 0,-3.8 3.1,-6.9 6.9,-6.9 3.8,0 6.9,3.1 6.9,6.9 0,3.8 -3.1,6.9 -6.9,6.9 z m -75.6,0 c -3.8,0 -6.9,-3.1 -6.9,-6.9 0,-3.8 3.1,-6.9 6.9,-6.9 3.8,0 6.9,3.1 6.9,6.9 0,3.8 -3.1,6.9 -6.9,6.9 z" class="st0"/></svg>