<svg xmlns="http://www.w3.org/2000/svg" xmlns:svg="http://www.w3.org/2000/svg" id="svg2985" width="1000" height="417.808" version="1.1" xml:space="preserve"><metadata id="metadata2991"/><defs id="defs2989"><clipPath id="clipPath3001" clipPathUnits="userSpaceOnUse"><path id="path3003" d="M 0,0 0,871 2088,871 2088,0 0,0 z"/></clipPath><clipPath id="clipPath3007" clipPathUnits="userSpaceOnUse"><path id="path3009" d="m 2075.17,683.223 c 0,0 -12.16,85.351 -49.46,122.941 -47.31,49.328 -100.35,49.578 -124.67,52.461 -174.1,12.527 -435.27,12.527 -435.27,12.527 l -0.54,0 c 0,0 -261.18,0 -435.28,-12.527 -24.32,-2.883 -77.345,-3.133 -124.665,-52.461 -37.308,-37.59 -49.453,-122.941 -49.453,-122.941 0,0 -12.441,-100.231 -12.441,-200.469 l 0,-93.969 c 0,-100.226 12.441,-200.457 12.441,-200.457 0,0 12.145,-85.348 49.453,-122.9413 C 952.605,16.0469 1014.79,17.6172 1042.47,12.4492 1142.01,2.9375 1465.5,0 1465.5,0 c 0,0 261.44,0.390625 435.54,12.9141 24.32,2.8906 77.36,3.1328 124.67,52.4726 37.3,37.5933 49.46,122.9413 49.46,122.9413 0,0 12.43,100.231 12.43,200.457 l 0,93.969 c 0,100.238 -12.43,200.469 -12.43,200.469 z"/></clipPath><linearGradient id="linearGradient3011" x1="0" x2="1" y1="0" y2="0" gradientTransform="matrix(0,-209.078,-209.078,0,351.719,209.077)" gradientUnits="userSpaceOnUse" spreadMethod="pad"><stop style="stop-opacity:1;stop-color:#e42526" id="stop3013" offset="0"/><stop style="stop-opacity:1;stop-color:#be1f26" id="stop3015" offset="1"/></linearGradient></defs><g id="g2993" transform="matrix(1.25,0,0,-1.25,-58.278885,355.73042)"><g id="g2995" transform="matrix(0.38283196,0,0,0.38283196,47.023108,-49.262304)"><g id="g2997"><g id="g2999" clip-path="url(#clipPath3001)"><g id="g3005" clip-path="url(#clipPath3007)"><path style="fill:url(#linearGradient3011);fill-opacity:1;fill-rule:nonzero;stroke:none" id="path3017" d="m 1385,0 0,1 -60,0 0,1 -50,0 0,1 -42,0 0,1 -37,0 0,1 -31,0 0,1 -28,0 0,1 -24,0 0,1 -20,0 0,1 -18,0 0,1 -15,0 0,1 -12,0 0,1 -9,0 0,1 -8,0 0,1 -8,0 0,1 -8,0 0,1 -7,0 0,1 -6,0 0,1 -6,0 0,1 -5,0 0,1 -4,0 0,1 -5,0 0,1 -4,0 0,1 -3,0 0,1 -4,0 0,1 -3,0 0,1 -2,0 0,1 -3,0 0,1 -3,0 0,1 -2,0 0,1 -3,0 0,1 -2,0 0,1 -2,0 0,1 -3,0 0,1 -2,0 0,1 -2,0 0,1 -2,0 0,1 -1,0 0,1 -2,0 0,1 -2,0 0,1 -2,0 0,1 -1,0 0,1 -2,0 0,1 -1,0 0,1 -2,0 0,1 -1,0 0,1 -2,0 0,1 -1,0 0,1 -2,0 0,1 -1,0 0,1 -1,0 0,1 -1,0 0,1 -2,0 0,1 -1,0 0,1 -1,0 0,1 -1,0 0,1 -1,0 0,1 -2,0 0,1 -1,0 0,1 -1,0 0,1 -1,0 0,1 -1,0 0,1 -1,0 0,1 -1,0 0,1 -1,0 0,1 -1,0 0,1 -1,0 0,1 -1,0 0,2 -1,0 0,1 -1,0 0,1 -1,0 0,1 -1,0 0,1 -1,0 0,2 -1,0 0,1 -1,0 0,1 -1,0 0,2 -1,0 0,1 -1,0 0,2 -1,0 0,1 -1,0 0,2 -1,0 0,2 -1,0 0,1 -1,0 0,2 -1,0 0,2 -1,0 0,2 -1,0 0,2 -1,0 0,2 -1,0 0,2 -1,0 0,2 -1,0 0,2 -1,0 0,2 -1,0 0,2 -1,0 0,3 -1,0 0,2 -1,0 0,3 -1,0 0,2 -1,0 0,3 -1,0 0,3 -1,0 0,3 -1,0 0,3 -1,0 0,3 -1,0 0,3 -1,0 0,3 -1,0 0,3 -1,0 0,4 -1,0 0,4 -1,0 0,4 -1,0 0,3 -1,0 0,5 -1,0 0,4 -1,0 0,5 -1,0 0,5 -1,0 0,5 -1,0 0,6 -1,0 0,8 -1,0 0,9 -1,0 0,10 -1,0 0,10 -1,0 0,11 -1,0 0,11 -1,0 0,12 -1,0 0,13 -1,0 0,15 -1,0 0,16 -1,0 0,20 -1,0 0,27 -1,0 0,174 1,0 0,26 1,0 0,20 1,0 0,17 1,0 0,14 1,0 0,13 1,0 0,13 1,0 0,11 1,0 0,11 1,0 0,10 1,0 0,9 1,0 0,10 1,0 0,8 1,0 0,6 1,0 0,5 1,0 0,5 1,0 0,5 1,0 0,4 1,0 0,4 1,0 0,4 1,0 0,4 1,0 0,4 1,0 0,3 1,0 0,3 1,0 0,4 1,0 0,3 1,0 0,3 1,0 0,3 1,0 0,3 1,0 0,3 1,0 0,2 1,0 0,3 1,0 0,2 1,0 0,3 1,0 0,2 1,0 0,2 1,0 0,3 1,0 0,2 1,0 0,2 1,0 0,2 1,0 0,2 1,0 0,2 1,0 0,2 1,0 0,2 1,0 0,1 1,0 0,2 1,0 0,2 1,0 0,1 1,0 0,2 1,0 0,1 1,0 0,2 1,0 0,1 1,0 0,2 1,0 0,1 1,0 0,1 1,0 0,2 1,0 0,1 1,0 0,1 1,0 0,1 1,0 0,1 1,0 0,1 1,0 0,1 1,0 0,1 1,0 0,1 1,0 0,1 1,0 0,1 1,0 0,1 1,0 0,1 1,0 0,1 1,0 0,1 1,0 0,1 2,0 0,1 1,0 0,1 1,0 0,1 1,0 0,1 1,0 0,1 1,0 0,1 1,0 0,1 1,0 0,1 2,0 0,1 1,0 0,1 1,0 0,1 2,0 0,1 1,0 0,1 2,0 0,1 1,0 0,1 2,0 0,1 1,0 0,1 2,0 0,1 1,0 0,1 2,0 0,1 1,0 0,1 2,0 0,1 2,0 0,1 2,0 0,1 2,0 0,1 2,0 0,1 2,0 0,1 2,0 0,1 2,0 0,1 3,0 0,1 2,0 0,1 3,0 0,1 3,0 0,1 3,0 0,1 2,0 0,1 4,0 0,1 4,0 0,1 4,0 0,1 4,0 0,1 4,0 0,1 6,0 0,1 6,0 0,1 9,0 0,1 9,0 0,1 12,0 0,1 15,0 0,1 16,0 0,1 18,0 0,1 19,0 0,1 22,0 0,1 24,0 0,1 26,0 0,1 30,0 0,1 35,0 0,1 43,0 0,1 55,0 0,1 255,0 0,-1 55,0 0,-1 43,0 0,-1 35,0 0,-1 30,0 0,-1 26,0 0,-1 24,0 0,-1 22,0 0,-1 19,0 0,-1 18,0 0,-1 16,0 0,-1 15,0 0,-1 12,0 0,-1 9,0 0,-1 9,0 0,-1 6,0 0,-1 6,0 0,-1 4,0 0,-1 4,0 0,-1 4,0 0,-1 4,0 0,-1 4,0 0,-1 2,0 0,-1 3,0 0,-1 3,0 0,-1 3,0 0,-1 2,0 0,-1 3,0 0,-1 2,0 0,-1 2,0 0,-1 2,0 0,-1 2,0 0,-1 2,0 0,-1 2,0 0,-1 2,0 0,-1 2,0 0,-1 1,0 0,-1 2,0 0,-1 1,0 0,-1 2,0 0,-1 1,0 0,-1 2,0 0,-1 1,0 0,-1 2,0 0,-1 1,0 0,-1 2,0 0,-1 1,0 0,-1 1,0 0,-1 2,0 0,-1 1,0 0,-1 1,0 0,-1 1,0 0,-1 1,0 0,-1 1,0 0,-1 1,0 0,-1 1,0 0,-1 2,0 0,-1 1,0 0,-1 1,0 0,-1 1,0 0,-1 1,0 0,-1 1,0 0,-1 1,0 0,-1 1,0 0,-1 1,0 0,-1 1,0 0,-1 1,0 0,-1 1,0 0,-1 1,0 0,-1 1,0 0,-1 1,0 0,-1 1,0 0,-2 1,0 0,-1 1,0 0,-2 1,0 0,-1 1,0 0,-1 1,0 0,-2 1,0 0,-1 1,0 0,-2 1,0 0,-1 1,0 0,-2 1,0 0,-2 1,0 0,-1 1,0 0,-2 1,0 0,-2 1,0 0,-2 1,0 0,-2 1,0 0,-2 1,0 0,-2 1,0 0,-2 1,0 0,-3 1,0 0,-2 1,0 0,-2 1,0 0,-3 1,0 0,-2 1,0 0,-3 1,0 0,-2 1,0 0,-3 1,0 0,-3 1,0 0,-3 1,0 0,-3 1,0 0,-3 1,0 0,-4 1,0 0,-3 1,0 0,-3 1,0 0,-4 1,0 0,-4 1,0 0,-4 1,0 0,-4 1,0 0,-4 1,0 0,-5 1,0 0,-5 1,0 0,-5 1,0 0,-6 1,0 0,-8 1,0 0,-9 1,0 0,-10 1,0 0,-10 1,0 0,-11 1,0 0,-11 1,0 0,-13 1,0 0,-13 1,0 0,-15 1,0 0,-16 1,0 0,-20 1,0 0,-26 1,0 0,-174 -1,0 0,-27 -1,0 0,-19 -1,0 0,-17 -1,0 0,-14 -1,0 0,-14 -1,0 0,-12 -1,0 0,-11 -1,0 0,-11 -1,0 0,-10 -1,0 0,-10 -1,0 0,-9 -1,0 0,-8 -1,0 0,-6 -1,0 0,-5 -1,0 0,-5 -1,0 0,-5 -1,0 0,-4 -1,0 0,-5 -1,0 0,-3 -1,0 0,-4 -1,0 0,-4 -1,0 0,-4 -1,0 0,-3 -1,0 0,-3 -1,0 0,-3 -1,0 0,-3 -1,0 0,-3 -1,0 0,-3 -1,0 0,-3 -1,0 0,-3 -1,0 0,-2 -1,0 0,-3 -1,0 0,-2 -1,0 0,-3 -1,0 0,-2 -1,0 0,-2 -1,0 0,-2 -1,0 0,-2 -1,0 0,-2 -1,0 0,-2 -1,0 0,-2 -1,0 0,-2 -1,0 0,-2 -1,0 0,-2 -1,0 0,-1 -1,0 0,-2 -1,0 0,-2 -1,0 0,-1 -1,0 0,-2 -1,0 0,-1 -1,0 0,-2 -1,0 0,-1 -1,0 0,-1 -1,0 0,-2 -1,0 0,-1 -1,0 0,-1 -1,0 0,-1 -1,0 0,-1 -1,0 0,-2 -1,0 0,-1 -1,0 0,-1 -1,0 0,-1 -1,0 0,-1 -1,0 0,-1 -2,0 0,-1 -1,0 0,-1 -1,0 0,-1 -1,0 0,-1 -1,0 0,-1 -1,0 0,-1 -1,0 0,-1 -1,0 0,-1 -1,0 0,-1 -1,0 0,-1 -2,0 0,-1 -1,0 0,-1 -1,0 0,-1 -1,0 0,-1 -1,0 0,-1 -2,0 0,-1 -1,0 0,-1 -2,0 0,-1 -1,0 0,-1 -2,0 0,-1 -1,0 0,-1 -2,0 0,-1 -1,0 0,-1 -2,0 0,-1 -1,0 0,-1 -1,0 0,-1 -2,0 0,-1 -2,0 0,-1 -2,0 0,-1 -2,0 0,-1 -2,0 0,-1 -2,0 0,-1 -2,0 0,-1 -2,0 0,-1 -2,0 0,-1 -3,0 0,-1 -3,0 0,-1 -3,0 0,-1 -2,0 0,-1 -3,0 0,-1 -3,0 0,-1 -4,0 0,-1 -4,0 0,-1 -4,0 0,-1 -4,0 0,-1 -6,0 0,-1 -6,0 0,-1 -7,0 0,-1 -9,0 0,-1 -10,0 0,-1 -14,0 0,-1 -16,0 0,-1 -17,0 0,-1 -18,0 0,-1 -21,0 0,-1 -21,0 0,-1 -25,0 0,-1 -28,0 0,-1 -31,0 0,-1 -37,0 0,-1 -44,0 0,-1 -57,0 0,-1"/></g></g></g><path style="fill:#100f0d;fill-opacity:1;fill-rule:nonzero;stroke:none" id="path3019" d="m 779.168,166.172 -79.168,0 0,45.832 c -30.012,-34.399 -55.453,-51.774 -83.187,-51.774 -24.333,0 -41.231,11.477 -49.692,32.215 -5.141,12.614 -8.789,32.301 -8.789,61.227 l 0,333.332 79.168,0 0,-312.5 c 0,-17.676 0,-25 0,-29.168 1.848,-11.695 6.813,-15.965 16.879,-15.965 15.156,0 28.867,13.168 45.621,36.801 l 0,320.832 79.168,0 0,-420.832"/><path style="fill:#100f0d;fill-opacity:1;fill-rule:nonzero;stroke:none" id="path3021" d="m 420.832,291.172 c 4.168,-41.668 -8.754,-62.344 -33.34,-62.344 -24.582,0 -37.492,20.676 -33.324,62.344 l 0,166.664 c -4.168,41.668 8.75,61.195 33.332,61.195 24.582,0 37.543,-19.527 33.375,-61.195 L 420.832,291.172 z M 500,449.504 c 0,44.973 -9.035,78.742 -25,100 -21.09,28.781 -54.168,40.566 -87.5,40.566 -37.73,0 -66.441,-11.785 -87.5,-40.566 -16.223,-21.258 -24.922,-55.395 -24.922,-100.367 L 275,299.504 c 0,-44.719 7.738,-75.621 23.961,-96.672 21.059,-28.695 55.207,-43.898 88.539,-43.898 33.332,0 68.078,15.203 89.168,43.898 15.965,21.051 23.332,51.953 23.332,96.672 l 0,150"/><path style="fill:#100f0d;fill-opacity:1;fill-rule:nonzero;stroke:none" id="path3023" d="m 187.5,395.336 0,-229.164 -83.332,0 0,229.164 c 0,0 -86.3555,280.965 -104.168,333.332 l 87.5,0 58.477,-219.48 58.191,219.48 87.5,0 L 187.5,395.336"/><path style="fill:#fff;fill-opacity:1;fill-rule:nonzero;stroke:none" id="path3025" d="m 1833.33,470.508 c 0,38.941 10.68,49.562 35.87,49.562 25.01,0 34.97,-11.57 34.97,-50.082 l 0,-45.484 -70.84,-0.078 0,46.082 z m 150.15,-108.504 -0.02,85.18 c 0,44.5 -8.76,77.05 -24.53,98.113 -21.14,28.492 -51.18,43.57 -89.03,43.57 -38.51,0 -68.54,-15.078 -90.36,-43.57 -16.02,-21.063 -25.37,-55.461 -25.37,-99.961 l 0,-145.832 c 0,-44.246 10.28,-75.219 26.3,-96.055 21.81,-28.449 51.85,-42.648 91.31,-42.648 39.41,0 70.36,14.898 91.23,45.133 9.17,13.343 15.1,28.476 17.64,45.195 0.68,7.555 2.68,24.758 2.68,49.066 l 0,11.809 -79.16,0 c 0,-30.266 0.13,-48.258 -0.56,-52.371 -4.31,-20.16 -15.13,-30.262 -33.71,-30.262 -25.89,0 -36.83,19.359 -36.57,57.809 l 0,74.824 150.15,0"/><path style="fill:#fff;fill-opacity:1;fill-rule:nonzero;stroke:none" id="path3027" d="m 1625,287.004 c 0,-41.668 -9.82,-57.633 -31.57,-57.633 -12.43,0 -26.73,6.391 -39.35,19.004 l 0.09,252.691 c 12.61,12.45 26.83,19.004 39.26,19.004 21.75,0 31.57,-12.234 31.57,-53.902 l 0,-179.164 z m 8.78,302.516 c -27.75,0 -55.33,-17.067 -79.7,-47.047 l 0.09,182.031 -75,0 0,-558.332 75,0 0.1,41.949 c 25.21,-31.183 52.69,-47.32 79.51,-47.32 30.04,0 51.99,16.078 62.05,47.035 5.04,17.652 8.34,44.828 8.34,83.336 l 0,166.664 c 0,39.437 -5.06,66.398 -10.1,83.148 -10.06,31.184 -30.25,48.536 -60.29,48.536"/><path style="fill:#fff;fill-opacity:1;fill-rule:nonzero;stroke:none" id="path3029" d="m 1416.67,166.172 -79.17,0 0,45.832 c -30.01,-34.399 -55.45,-51.774 -83.19,-51.774 -24.33,0 -41.23,11.477 -49.69,32.215 -5.14,12.614 -8.79,32.301 -8.79,61.227 l 0,329.164 79.17,0 0,-308.332 c 0,-17.676 0,-25 0,-29.168 1.85,-11.695 6.81,-15.965 16.88,-15.965 15.16,0 28.87,13.168 45.62,36.801 l 0,316.664 79.17,0 0,-416.664"/><path style="fill:#fff;fill-opacity:1;fill-rule:nonzero;stroke:none" id="path3031" d="m 1116.67,166.172 -83.34,0 0,479.164 -87.498,0 0,79.078 262.498,0.09 0,-79.168 -91.66,0 0,-479.164"/></g></g></svg>